<svg width="97.802475" height="48.987061" viewBox="0 0 97.8025 48.9871" fill="none" xmlns="http://www.w3.org/2000/svg" xmlns:xlink="http://www.w3.org/1999/xlink">
	<desc>
			Created with Pixso.
	</desc>
	<defs/>
	<path id="Ellipse 23" d="M97.7961 3.20386C97.0037 15.448 91.7026 26.4749 83.5385 34.6389C73.9886 44.2075 61.444 48.9871 48.8995 48.9871C35.3808 49 23.1308 43.5093 14.2605 34.6389C5.50711 25.9026 0.76149 14.6599 0.00657654 3.20374C-0.109818 1.4375 1.33543 0 3.10555 0C4.87437 0 6.29565 1.43591 6.42702 3.19983C7.20726 13.6765 11.787 23.1046 18.791 30.1084C27.0919 38.4255 37.9957 42.5798 48.8995 42.5798C60.65 42.5913 71.2978 37.8186 79.008 30.1084C86.5108 22.6201 90.6261 13.0135 91.3682 3.19971C91.5017 1.4353 92.9241 0 94.6934 0C96.4641 0 97.9105 1.43689 97.7961 3.20386Z" fill="#FF4948" fill-opacity="1.000000" fill-rule="evenodd"/>
</svg>
