<svg width="24.765732" height="23.652344" viewBox="0 0 24.7657 23.6523" fill="none" xmlns="http://www.w3.org/2000/svg" xmlns:xlink="http://www.w3.org/1999/xlink">
	<desc>
			Created with Pixso.
	</desc>
	<defs/>
	<path id="Star 1" d="M11.4318 0.690918L9.19415 7.57764C9.06029 7.98975 8.67633 8.2688 8.2431 8.2688L1.00192 8.2688C0.0331879 8.2688 -0.369583 9.5083 0.414139 10.0776L6.27237 14.334C6.62286 14.5886 6.76952 15.04 6.63565 15.4521L4.39799 22.3389C4.09865 23.26 5.15312 24.0264 5.93684 23.4568L11.7951 19.2007C12.1456 18.946 12.6202 18.946 12.9706 19.2007L18.8289 23.4568C19.6126 24.0264 20.6671 23.26 20.3677 22.3389L18.1301 15.4521C17.9962 15.04 18.1429 14.5886 18.4934 14.334L24.3516 10.0776C25.1353 9.5083 24.7325 8.2688 23.7638 8.2688L16.5226 8.2688C16.0894 8.2688 15.7054 7.98975 15.5716 7.57764L13.3339 0.690918C13.0346 -0.230225 11.7312 -0.230225 11.4318 0.690918Z" fill="#FEFEFE" fill-opacity="1.000000" fill-rule="evenodd"/>
	<path id="Star 1" d="M9.19415 7.57764C9.06029 7.98975 8.67633 8.2688 8.2431 8.2688L1.00192 8.2688C0.0331879 8.2688 -0.369583 9.5083 0.414139 10.0776L6.27237 14.334C6.62286 14.5886 6.76952 15.04 6.63565 15.4521L4.39799 22.3389C4.09865 23.26 5.15312 24.0264 5.93684 23.4568L11.7951 19.2007C12.1456 18.946 12.6202 18.946 12.9706 19.2007L18.8289 23.4568C19.6126 24.0264 20.6671 23.26 20.3677 22.3389L18.1301 15.4521C17.9962 15.04 18.1429 14.5886 18.4934 14.334L24.3516 10.0776C25.1353 9.5083 24.7325 8.2688 23.7638 8.2688L16.5226 8.2688C16.0894 8.2688 15.7054 7.98975 15.5716 7.57764L13.3339 0.690918C13.0346 -0.230225 11.7312 -0.230225 11.4318 0.690918L9.19415 7.57764ZM10.1452 7.88672C9.87747 8.71069 9.10956 9.2688 8.2431 9.2688L1.00192 9.2688L6.86015 13.5249C7.56114 14.0342 7.85445 14.937 7.5867 15.761L5.34906 22.6479L11.2073 18.3916C11.9083 17.8823 12.8575 17.8823 13.5584 18.3916L19.4167 22.6477L17.179 15.761C16.9113 14.937 17.2046 14.0342 17.9056 13.5249L23.7638 9.2688L16.5226 9.2688C15.6562 9.2688 14.8883 8.71069 14.6205 7.88672L12.3829 1L10.1452 7.88672Z" fill="#FDAE38" fill-opacity="1.000000" fill-rule="evenodd"/>
</svg>
