<svg width="25.833313" height="25.833252" viewBox="0 0 25.8333 25.8333" fill="none" xmlns="http://www.w3.org/2000/svg" xmlns:xlink="http://www.w3.org/1999/xlink">
	<desc>
			Created with Pixso.
	</desc>
	<defs/>
	<path id="Vector" d="M7.75 20.6667C6.32916 20.6667 5.17957 21.8291 5.17957 23.25C5.17957 24.6709 6.32916 25.8333 7.75 25.8333C9.17084 25.8333 10.3333 24.6709 10.3333 23.25C10.3333 21.8291 9.17084 20.6667 7.75 20.6667ZM0 0L0 2.58325L2.58331 2.58325L7.23334 12.387L5.48956 15.5518C5.2829 15.9133 5.16669 16.3396 5.16669 16.7917C5.16669 18.2124 6.32916 19.375 7.75 19.375L23.25 19.375L23.25 16.7917L8.29248 16.7917C8.11169 16.7917 7.9696 16.6497 7.9696 16.4688L8.00836 16.3137L9.17084 14.2083L18.7938 14.2083C19.7625 14.2083 20.615 13.6787 21.0541 12.8779L25.6783 4.49512C25.7817 4.31421 25.8333 4.09448 25.8333 3.875C25.8333 3.16455 25.2521 2.58325 24.5417 2.58325L5.43793 2.58325L4.22375 0L0 0ZM20.6667 20.6667C19.2458 20.6667 18.0963 21.8291 18.0963 23.25C18.0963 24.6709 19.2458 25.8333 20.6667 25.8333C22.0875 25.8333 23.25 24.6709 23.25 23.25C23.25 21.8291 22.0875 20.6667 20.6667 20.6667Z" fill="#716969" fill-opacity="1.000000" fill-rule="nonzero"/>
</svg>
